#!OML:ASF F:\twosubjects\two\Thursday\Session 1\justin.ASF
:FULLY-SPECIFIED
:DEGREES
747
root 10.8703 17.8004 -11.9886 -0.244677 -49.644 6.06844
lowerback -2.56824 2.23949 -3.20703
upperback -0.493432 3.06604 0.382971
thorax 0.742615 1.52593 2.27987
lowerneck -20.8637 7.18622 -1.86346
upperneck 21.4788 11.3663 -2.91357
head 10.3981 4.66708 0.954227
rclavicle 8.17005e-014 -3.97569e-015
rhumerus -28.8324 -16.2401 -79.5186
rradius 26.1269
rwrist 2.2487
rhand -15.9373 12.6985
rfingers 7.12502
rthumb 10.2607 -17.0312
lclavicle 8.17005e-014 -3.97569e-015
lhumerus -30.3515 12.0608 82.503
lradius 25.1425
lwrist -16.6869
lhand -2.15464 39.6947
lfingers 7.12502
lthumb 23.5251 68.2761
rfemur -4.74232 -2.83713 5.32957
rtibia 19.9679
rfoot -14.3434 -16.9885
rtoes -17.1395
lfemur -6.18123 10.0081 -27.3104
ltibia 16.1013
lfoot -13.4433 -0.445105
ltoes -9.17563
748
root 10.8714 17.8017 -11.9909 -0.182446 -49.6159 5.98438
lowerback -2.60904 2.20484 -3.20434
upperback -0.445886 3.02134 0.461974
thorax 0.812924 1.50183 2.36142
lowerneck -20.6149 7.2224 -1.76496
upperneck 21.1449 11.4473 -3.28705
head 10.2656 4.68467 0.804497
rclavicle -2.43511e-015 -1.19271e-014
rhumerus -28.7481 -16.1031 -79.4614
rradius 26.1419
rwrist 2.26056
rhand -15.8424 12.7599
rfingers 7.12502
rthumb 10.3522 -16.9653
lclavicle -2.43511e-015 -1.19271e-014
lhumerus -30.3546 12.2631 82.5602
lradius 25.0784
lwrist -16.753
lhand -2.09492 39.8572
lfingers 7.12502
lthumb 23.5823 68.4312
rfemur -4.74031 -2.8544 5.39667
rtibia 19.9613
rfoot -14.3379 -16.9622
rtoes -17.4303
lfemur -6.18566 9.92784 -27.2476
ltibia 16.1046
lfoot -13.4194 -0.384219
ltoes -9.3599
749
root 10.8724 17.8024 -11.9919 -0.0943677 -49.5692 5.86089
lowerback -2.5898 2.15997 -3.14793
upperback -0.444329 2.95883 0.519305
thorax 0.807582 1.47082 2.38632
lowerneck -20.593 7.24249 -1.81788
upperneck 21.0958 11.4978 -3.32797
head 10.2442 4.70096 0.803876
rclavicle 1.17283e-014 -7.15625e-015
rhumerus -28.7553 -15.9112 -79.435
rradius 26.175
rwrist 2.25318
rhand -15.6614 12.8288
rfingers 7.12502
rthumb 10.5268 -16.8876
lclavicle 1.17283e-014 -7.15625e-015
lhumerus -30.4341 12.6657 82.4558
lradius 25.0077
lwrist -17.0896
lhand -1.95732 39.8736
lfingers 7.12502
lthumb 23.7143 68.4306
rfemur -4.7297 -2.90285 5.48401
rtibia 19.9904
rfoot -14.4546 -16.8959
rtoes -17.0021
lfemur -6.16658 9.89072 -27.153
ltibia 16.0807
lfoot -13.4256 -0.378824
ltoes -9.04701
750
root 10.8712 17.8013 -11.992 -0.124486 -49.5651 5.83555
lowerback -2.53254 2.20056 -3.1136
upperback -0.444432 3.0104 0.494143
thorax 0.775254 1.49726 2.34008
lowerneck -20.8189 7.19736 -2.01734
upperneck 21.4597 11.4313 -2.92825
head 10.3754 4.68401 0.979923
rclavicle 2.08475e-014 -1.03368e-014
rhumerus -28.7971 -16.1098 -79.3799
rradius 26.1302
rwrist 2.33955
rhand -15.632 12.8054
rfingers 7.12502
rthumb 10.5551 -16.9095
lclavicle 2.08475e-014 -1.03368e-014
lhumerus -30.4642 12.624 82.4004
lradius 24.9358
lwrist -17.1909
lhand -1.87775 40.1574
lfingers 7.12502
lthumb 23.7906 68.7045
rfemur -4.69726 -2.96407 5.49816
rtibia 20.0433
rfoot -14.4478 -16.8242
rtoes -17.0994
lfemur -6.08164 10.0425 -27.1324
ltibia 16.0216
lfoot -13.369 -0.496224
ltoes -7.63604
751
root 10.8657 17.7992 -11.9944 -0.347796 -49.5907 6.16096
lowerback -2.57857 2.2368 -3.39716
upperback -0.454129 3.0681 0.45277
thorax 0.774759 1.52558 2.45915
lowerneck -20.8476 7.1394 -2.21833
upperneck 21.5632 11.3722 -2.73259
head 10.3918 4.66047 1.07299
rclavicle 4.86029e-014 -2.38542e-015
rhumerus -28.8379 -16.2049 -79.2977
rradius 26.1091
rwrist 2.3509
rhand -15.6573 12.7277
rfingers 7.12502
rthumb 10.5308 -16.9885
lclavicle 4.86029e-014 -2.38542e-015
lhumerus -30.5438 12.7063 82.383
lradius 24.9395
lwrist -17.2905
lhand -1.62749 40.5882
lfingers 7.12502
lthumb 24.0306 69.1038
rfemur -4.7434 -2.94662 5.27572
rtibia 20.0811
rfoot -14.3738 -16.8101
rtoes -17.8746
lfemur -6.08455 10.3082 -27.3708
ltibia 15.9675
lfoot -13.3191 -0.665502
ltoes -6.90578
752
root 10.8626 17.7993 -11.9966 -0.468016 -49.5926 6.42945
lowerback -2.66689 2.24266 -3.62672
upperback -0.463954 3.08563 0.415768
thorax 0.802796 1.53335 2.55352
lowerneck -20.644 7.10574 -2.40462
upperneck 21.2731 11.3152 -2.5829
head 10.2269 4.65695 1.12821
rclavicle 4.57205e-014 1.35174e-014
rhumerus -28.8217 -16.2805 -79.2578
rradius 26.0827
rwrist 2.40905
rhand -15.657 12.7338
rfingers 7.12502
rthumb 10.531 -16.9824
lclavicle 4.57205e-014 1.35174e-014
lhumerus -30.5543 12.8762 82.3215
lradius 24.8892
lwrist -17.4287
lhand -1.39057 40.7584
lfingers 7.12502
lthumb 24.2578 69.2438
rfemur -4.84822 -2.93613 5.08845
rtibia 20.1189
rfoot -14.3548 -16.8307
rtoes -17.9761
lfemur -6.15159 10.2771 -27.5577
ltibia 15.9262
lfoot -13.1889 -0.671792
ltoes -7.7126
753
root 10.8651 17.8023 -11.995 -0.283604 -49.5772 6.12046
lowerback -2.59248 2.26938 -3.371
upperback -0.454363 3.11145 0.436841
thorax 0.781674 1.54717 2.4299
lowerneck -20.4162 7.07208 -2.58618
upperneck 21.0658 11.2213 -2.27508
head 10.077 4.6537 1.23232
rclavicle -9.70069e-014 -4.77083e-015
rhumerus -28.8613 -16.3479 -79.2654
rradius 26.1106
rwrist 2.47222
rhand -15.6444 12.771
rfingers 7.12502
rthumb 10.5432 -16.9445
lclavicle -9.70069e-014 -4.77083e-015
lhumerus -30.5026 12.6316 82.3611
lradius 24.7701
lwrist -17.1612
lhand -1.46884 40.7467
lfingers 7.12502
lthumb 24.1828 69.2422
rfemur -4.7966 -2.96698 5.29207
rtibia 20.154
rfoot -14.4395 -16.8303
rtoes -17.494
lfemur -6.07142 10.0804 -27.317
ltibia 15.9022
lfoot -13.0208 -0.537031
ltoes -8.26442
754
root 10.8655 17.8048 -11.9956 -0.149177 -49.5971 5.91076
lowerback -2.54349 2.29048 -3.18735
upperback -0.452021 3.13305 0.428987
thorax 0.765552 1.55864 2.31771
lowerneck -20.4314 7.05767 -2.58229
upperneck 21.1371 11.1758 -2.1584
head 10.0971 4.64456 1.26767
rclavicle -1.38652e-014 1.43125e-014
rhumerus -28.9181 -16.1742 -79.4002
rradius 26.2485
rwrist 2.22132
rhand -15.7389 12.9098
rfingers 7.12502
rthumb 10.4521 -16.8104
lclavicle -1.38652e-014 1.43125e-014
lhumerus -30.5219 12.5537 82.3185
lradius 24.7645
lwrist -17.0503
lhand -1.67386 40.7597
lfingers 7.12502
lthumb 23.9862 69.2812
rfemur -4.74813 -2.94508 5.44375
rtibia 20.118
rfoot -14.522 -16.8416
rtoes -17.0795
lfemur -6.0742 10.1709 -27.161
ltibia 15.9514
lfoot -13.2257 -0.618589
ltoes -7.92912
755
root 10.8631 17.8043 -11.9981 -0.153687 -49.6455 5.96783
lowerback -2.55081 2.30958 -3.23396
upperback -0.480426 3.15975 0.395692
thorax 0.738154 1.57269 2.30976
lowerneck -20.5078 7.08572 -2.65585
upperneck 21.3269 11.1881 -1.89938
head 10.156 4.6676 1.37762
rclavicle -7.30534e-014 7.95139e-015
rhumerus -28.9834 -16.2023 -79.4277
rradius 26.3143
rwrist 2.18682
rhand -15.7302 13.1847
rfingers 7.12502
rthumb 10.4605 -16.5351
lclavicle -7.30534e-014 7.95139e-015
lhumerus -30.5887 12.4404 82.2925
lradius 24.8493
lwrist -16.9347
lhand -1.83108 40.7687
lfingers 7.12502
lthumb 23.8354 69.31
rfemur -4.77689 -2.92131 5.42416
rtibia 20.0528
rfoot -14.4486 -16.8658
rtoes -17.1849
lfemur -6.16889 10.3652 -27.201
ltibia 16.0369
lfoot -13.4167 -0.784368
ltoes -6.97726
756
root 10.8608 17.8036 -12.0002 -0.10203 -49.6367 5.83467
lowerback -2.43043 2.33261 -3.18971
upperback -0.521024 3.18421 0.429653
thorax 0.628045 1.5875 2.31357
lowerneck -20.5236 7.09605 -2.92388
upperneck 21.5716 11.1824 -1.42819
head 10.197 4.69291 1.58654
rclavicle -1.61811e-013 -7.15625e-015
rhumerus -29.1325 -16.2801 -79.3242
rradius 26.3343
rwrist 2.2223
rhand -15.557 13.4439
rfingers 7.12502
rthumb 10.6275 -16.2673
lclavicle -1.61811e-013 -7.15625e-015
lhumerus -30.6901 12.0492 82.4108
lradius 24.9245
lwrist -16.5327
lhand -2.03301 40.7842
lfingers 7.12502
lthumb 23.6417 69.3506
rfemur -4.73007 -2.90885 5.53705
rtibia 20.0542
rfoot -14.3762 -16.9195
rtoes -17.409
lfemur -6.11656 10.3482 -27.0847
ltibia 16.0519
lfoot -13.3754 -0.753822
ltoes -6.51646
757
root 10.8588 17.8019 -12.0029 -0.141744 -49.5833 5.82776
lowerback -2.31613 2.31967 -3.22264
upperback -0.546867 3.16336 0.443911
thorax 0.53627 1.57903 2.33995
lowerneck -20.6305 7.08104 -2.86663
upperneck 21.7964 11.1824 -1.50323
head 10.3071 4.67522 1.56375
rclavicle -1.63003e-014 1.59028e-015
rhumerus -29.2127 -16.2019 -79.3107
rradius 26.3746
rwrist 2.06292
rhand -15.4882 13.5552
rfingers 7.12502
rthumb 10.6939 -16.1526
lclavicle -1.63003e-014 1.59028e-015
lhumerus -30.7468 11.9412 82.442
lradius 24.9023
lwrist -16.395
lhand -2.14789 40.865
lfingers 7.12502
lthumb 23.5315 69.4456
rfemur -4.66575 -2.86505 5.55747
rtibia 20.065
rfoot -14.3588 -16.9797
rtoes -17.4456
lfemur -6.06065 10.2999 -27.0514
ltibia 16.0313
lfoot -13.436 -0.784341
ltoes -6.70232
